<?xml version="1.0" encoding="utf-8"?>
<!-- Generator: Adobe Illustrator 16.0.0, SVG Export Plug-In . SVG Version: 6.00 Build 0)  -->
<!DOCTYPE svg PUBLIC "-//W3C//DTD SVG 1.1//EN" "http://www.w3.org/Graphics/SVG/1.1/DTD/svg11.dtd">
<svg version="1.1" id="Layer_1" xmlns="http://www.w3.org/2000/svg" xmlns:xlink="http://www.w3.org/1999/xlink" x="0px" y="0px"
	 width="103.72px" height="24px" viewBox="0 0 103.72 24" enable-background="new 0 0 103.72 24" xml:space="preserve">
<g>
	<path fill="#FFFFFF" d="M13.86,15.04H4.824l-3.104,7.851H0L8.946,0.557h0.989L18.7,22.891h-1.75L13.86,15.04z M5.387,13.641h7.957
		l-3.027-8.018c-0.254-0.629-0.559-1.5-0.913-2.616C9.13,3.98,8.831,4.862,8.506,5.653L5.387,13.641z"/>
	<path fill="#FFFFFF" d="M32.59,0.648h1.689l-8.321,22.243h-1.369L16.297,0.648h1.658l5.599,15.137
		c0.853,2.282,1.425,3.996,1.72,5.143c0.202-0.761,0.603-1.942,1.201-3.545L32.59,0.648z"/>
	<path fill="#FFFFFF" d="M44.961,11.678h8.2v10.147c-2.151,0.913-4.569,1.37-7.258,1.37c-3.509,0-6.2-0.992-8.071-2.975
		c-1.873-1.982-2.807-4.791-2.807-8.421c0-2.262,0.464-4.268,1.393-6.017c0.928-1.75,2.256-3.102,3.986-4.055
		c1.729-0.954,3.714-1.43,5.955-1.43c2.424,0,4.601,0.446,6.527,1.339l-0.623,1.399c-1.929-0.892-3.926-1.339-5.996-1.339
		c-2.931,0-5.256,0.905-6.975,2.715c-1.719,1.811-2.579,4.253-2.579,7.326c0,3.348,0.816,5.865,2.45,7.554
		c1.633,1.689,4.031,2.533,7.195,2.533c2.049,0,3.789-0.288,5.219-0.866v-7.82h-6.617V11.678z"/>
	<path fill="#FFFFFF" d="M103.303,23.5h-41v-23h41V23.5z M63.303,22.5h39v-21h-39V22.5z"/>
	<g>
		<path fill="#FFFFFF" d="M82.519,5.437v8.062c0,1.432-0.415,2.55-1.244,3.357c-0.829,0.807-1.984,1.209-3.467,1.209
			c-1.442,0-2.569-0.404-3.381-1.214c-0.808-0.81-1.213-1.938-1.213-3.387V5.437h0.878v8.062c0,1.197,0.332,2.131,0.997,2.799
			s1.604,1,2.821,1c1.187,0,2.107-0.327,2.761-0.983c0.652-0.655,0.979-1.565,0.979-2.731V5.437H82.519z"/>
		<path fill="#FFFFFF" d="M93.938,17.895H92.94l-3.681-5.812l-3.75,5.812h-0.961l4.19-6.493l-3.808-5.965h0.98l3.364,5.334
			l3.419-5.334h0.927l-3.858,5.948L93.938,17.895z"/>
	</g>
</g>
<g>
</g>
<g>
</g>
<g>
</g>
<g>
</g>
<g>
</g>
<g>
</g>
<g>
</g>
<g>
</g>
<g>
</g>
<g>
</g>
<g>
</g>
<g>
</g>
<g>
</g>
<g>
</g>
<g>
</g>
</svg>
