<?xml version="1.0" encoding="utf-8"?>
<!-- Generator: Adobe Illustrator 16.0.0, SVG Export Plug-In . SVG Version: 6.00 Build 0)  -->
<!DOCTYPE svg PUBLIC "-//W3C//DTD SVG 1.1//EN" "http://www.w3.org/Graphics/SVG/1.1/DTD/svg11.dtd">
<svg version="1.1" id="Layer_1" xmlns="http://www.w3.org/2000/svg" xmlns:xlink="http://www.w3.org/1999/xlink" x="0px" y="0px"
	 width="103.303px" height="23.202px" viewBox="0 0 103.303 23.202" enable-background="new 0 0 103.303 23.202"
	 xml:space="preserve">
<g>
	<path d="M13.86,14.742H4.824l-3.104,7.851H0L8.946,0.259h0.989L18.7,22.593h-1.75L13.86,14.742z M5.387,13.343h7.957l-3.027-8.018
		c-0.254-0.629-0.559-1.5-0.913-2.616C9.13,3.682,8.831,4.564,8.506,5.355L5.387,13.343z"/>
	<path d="M32.59,0.35h1.689l-8.321,22.243h-1.369L16.297,0.35h1.658l5.599,15.137c0.853,2.282,1.425,3.996,1.72,5.143
		c0.202-0.761,0.603-1.942,1.201-3.545L32.59,0.35z"/>
	<path d="M44.961,11.38h8.2v10.147c-2.151,0.913-4.569,1.37-7.258,1.37c-3.509,0-6.2-0.992-8.071-2.975
		c-1.873-1.982-2.807-4.791-2.807-8.421c0-2.262,0.464-4.268,1.393-6.017c0.928-1.75,2.256-3.102,3.986-4.055
		C42.133,0.477,44.118,0,46.359,0c2.424,0,4.601,0.446,6.527,1.339l-0.623,1.399c-1.929-0.892-3.926-1.339-5.996-1.339
		c-2.931,0-5.256,0.905-6.975,2.715c-1.719,1.811-2.579,4.253-2.579,7.326c0,3.348,0.816,5.865,2.45,7.554
		c1.633,1.689,4.031,2.533,7.195,2.533c2.049,0,3.789-0.288,5.219-0.866v-7.82h-6.617V11.38z"/>
	<path d="M103.303,23.202h-41v-23h41V23.202z M63.303,22.202h39v-21h-39V22.202z"/>
	<g>
		<path d="M82.519,5.139V13.2c0,1.432-0.415,2.55-1.244,3.357c-0.829,0.807-1.984,1.209-3.467,1.209
			c-1.442,0-2.569-0.404-3.381-1.214c-0.808-0.81-1.213-1.938-1.213-3.387V5.139h0.878V13.2c0,1.197,0.332,2.131,0.997,2.799
			s1.604,1,2.821,1c1.187,0,2.107-0.327,2.761-0.983c0.652-0.655,0.979-1.565,0.979-2.731V5.139H82.519z"/>
		<path d="M93.938,17.597H92.94l-3.681-5.812l-3.75,5.812h-0.961l4.19-6.493l-3.808-5.965h0.98l3.364,5.334l3.419-5.334h0.927
			l-3.858,5.948L93.938,17.597z"/>
	</g>
</g>
</svg>
